<svg xmlns="http://www.w3.org/2000/svg" xmlns:xlink="http://www.w3.org/1999/xlink" width="500" zoomAndPan="magnify" viewBox="0 0 375 374.999991" height="500" preserveAspectRatio="xMidYMid meet" version="1.2"><defs><clipPath id="4589275349"><path d="M 58.148438 85 L 316.898438 85 L 316.898438 226 L 58.148438 226 Z M 58.148438 85 "/></clipPath></defs><g id="ac04b65576"><path style=" stroke:none;fill-rule:nonzero;fill:#595959;fill-opacity:1;" d="M 215.632812 58.300781 C 213.695312 56.363281 210.566406 56.363281 208.632812 58.300781 L 187.324219 79.589844 L 166.019531 58.300781 C 164.082031 56.363281 160.953125 56.363281 159.015625 58.300781 C 157.078125 60.234375 157.078125 63.363281 159.015625 65.296875 L 180.324219 86.589844 L 159.015625 107.878906 C 157.078125 109.816406 157.078125 112.941406 159.015625 114.878906 C 160.011719 115.871094 161.25 116.316406 162.542969 116.316406 C 163.832031 116.316406 165.074219 115.820312 166.070312 114.878906 L 187.375 93.585938 L 208.679688 114.878906 C 209.675781 115.871094 210.914062 116.316406 212.207031 116.316406 C 213.496094 116.316406 214.738281 115.820312 215.734375 114.878906 C 217.667969 112.941406 217.667969 109.816406 215.734375 107.878906 L 194.425781 86.589844 L 215.734375 65.296875 C 217.667969 63.363281 217.667969 60.234375 215.734375 58.300781 Z M 215.632812 58.300781 "/><path style=" stroke:none;fill-rule:nonzero;fill:#bfbfbf;fill-opacity:1;" d="M 171.480469 154.332031 L 183.054688 173.589844 C 183.949219 175.078125 185.585938 176.023438 187.324219 176.023438 C 189.0625 176.023438 190.703125 175.128906 191.597656 173.589844 L 203.167969 154.332031 C 234.40625 147.039062 256.90625 118.949219 256.90625 86.640625 C 256.90625 73.140625 253.03125 60.039062 245.679688 48.820312 C 244.191406 46.539062 241.109375 45.894531 238.828125 47.382812 C 236.542969 48.871094 235.898438 51.949219 237.386719 54.230469 C 243.695312 63.808594 247.019531 75.027344 247.019531 86.589844 C 247.019531 114.878906 226.859375 139.445312 199.09375 145.003906 C 197.703125 145.300781 196.511719 146.09375 195.816406 147.335938 L 187.425781 161.332031 L 179.03125 147.335938 C 178.335938 146.144531 177.144531 145.300781 175.753906 145.003906 C 147.992188 139.445312 127.828125 114.878906 127.828125 86.589844 C 127.828125 53.734375 154.546875 27.035156 187.425781 27.035156 C 201.179688 27.035156 214.589844 31.796875 225.167969 40.484375 C 227.304688 42.21875 230.433594 41.921875 232.171875 39.789062 C 233.910156 37.65625 233.613281 34.527344 231.476562 32.789062 C 219.109375 22.667969 203.464844 17.058594 187.425781 17.058594 C 149.082031 17.058594 117.894531 48.226562 117.894531 86.539062 C 117.894531 118.800781 140.34375 146.9375 171.632812 154.234375 Z M 171.480469 154.332031 "/><path style=" stroke:none;fill-rule:nonzero;fill:#bfbfbf;fill-opacity:1;" d="M 239.570312 276.867188 L 192.242188 301.78125 L 192.242188 217.066406 C 192.242188 214.335938 190.007812 212.101562 187.277344 212.101562 C 184.542969 212.101562 182.308594 214.335938 182.308594 217.066406 L 182.308594 301.78125 L 97.878906 257.363281 L 97.878906 210.265625 C 97.878906 207.535156 95.644531 205.304688 92.914062 205.304688 C 90.183594 205.304688 87.945312 207.535156 87.945312 210.265625 L 87.945312 260.34375 C 87.945312 262.179688 88.988281 263.867188 90.578125 264.710938 L 184.941406 314.339844 C 184.941406 314.339844 185.089844 314.390625 185.191406 314.4375 C 185.289062 314.488281 185.4375 314.539062 185.539062 314.585938 C 186.082031 314.785156 186.679688 314.933594 187.273438 314.933594 C 187.871094 314.933594 188.417969 314.785156 189.011719 314.585938 C 189.113281 314.585938 189.261719 314.488281 189.359375 314.4375 C 189.460938 314.4375 189.511719 314.390625 189.609375 314.339844 L 244.238281 285.605469 C 246.671875 284.3125 247.617188 281.335938 246.324219 278.902344 C 245.035156 276.472656 242.054688 275.527344 239.621094 276.820312 Z M 239.570312 276.867188 "/><path style=" stroke:none;fill-rule:nonzero;fill:#bfbfbf;fill-opacity:1;" d="M 281.636719 205.304688 C 278.90625 205.304688 276.671875 207.535156 276.671875 210.265625 L 276.671875 257.363281 L 259.4375 266.445312 C 257.003906 267.738281 256.058594 270.714844 257.351562 273.148438 C 258.246094 274.832031 259.984375 275.777344 261.773438 275.777344 C 262.566406 275.777344 263.359375 275.578125 264.105469 275.179688 L 283.972656 264.710938 C 285.609375 263.867188 286.605469 262.179688 286.605469 260.34375 L 286.605469 210.265625 C 286.605469 207.535156 284.367188 205.304688 281.636719 205.304688 Z M 281.636719 205.304688 "/><g clip-rule="nonzero" clip-path="url(#4589275349)"><path style=" stroke:none;fill-rule:nonzero;fill:#595959;fill-opacity:1;" d="M 288.640625 141.230469 L 314.914062 114.976562 C 316.003906 113.886719 316.550781 112.296875 316.300781 110.710938 C 316.054688 109.171875 315.109375 107.78125 313.71875 107.085938 L 273.890625 86.144531 C 271.457031 84.851562 268.476562 85.796875 267.183594 88.226562 C 265.894531 90.660156 266.835938 93.636719 269.269531 94.925781 L 303.140625 112.742188 L 280.695312 135.175781 L 262.070312 125.351562 C 259.636719 124.058594 256.65625 125.003906 255.363281 127.433594 C 254.074219 129.867188 255.015625 132.84375 257.449219 134.132812 L 270.960938 141.230469 L 187.273438 185.253906 L 103.589844 141.230469 L 117.101562 134.132812 C 119.535156 132.84375 120.476562 129.867188 119.1875 127.433594 C 117.894531 125.003906 114.914062 124.109375 112.480469 125.351562 L 93.855469 135.175781 L 71.410156 112.742188 L 105.28125 94.925781 C 107.714844 93.636719 108.65625 90.660156 107.367188 88.226562 C 106.074219 85.796875 103.09375 84.851562 100.660156 86.144531 L 60.832031 107.085938 C 59.441406 107.832031 58.445312 109.171875 58.246094 110.710938 C 58 112.246094 58.546875 113.835938 59.636719 114.976562 L 85.910156 141.230469 L 59.636719 167.484375 C 58.546875 168.578125 58 170.164062 58.246094 171.703125 C 58.445312 173.242188 59.390625 174.582031 60.730469 175.375 L 105.429688 200.191406 C 107.8125 201.53125 110.84375 200.636719 112.183594 198.253906 C 113.523438 195.875 112.628906 192.847656 110.246094 191.507812 L 71.308594 169.867188 L 93.855469 147.335938 L 178.484375 191.851562 L 151.914062 214.632812 L 130.113281 202.523438 C 127.726562 201.183594 124.699219 202.078125 123.359375 204.460938 C 122.015625 206.839844 122.910156 209.867188 125.292969 211.210938 L 150.125 225.007812 C 150.871094 225.402344 151.714844 225.652344 152.558594 225.652344 C 153.703125 225.652344 154.84375 225.253906 155.789062 224.460938 L 187.324219 197.460938 L 218.863281 224.460938 C 219.804688 225.253906 220.949219 225.652344 222.089844 225.652344 C 222.933594 225.652344 223.730469 225.453125 224.523438 225.007812 L 313.917969 175.375 C 315.261719 174.632812 316.203125 173.292969 316.402344 171.703125 C 316.601562 170.164062 316.105469 168.625 315.011719 167.484375 L 288.738281 141.230469 Z M 222.636719 214.632812 L 196.066406 191.851562 L 280.695312 147.335938 L 303.242188 169.867188 Z M 222.636719 214.632812 "/></g><g style="fill:#595959;fill-opacity:1;"><g transform="translate(29.402346, 347.999977)"><path style="stroke:none" d="M 2.515625 0 L 2.515625 -19.984375 L 6.75 -19.984375 L 6.75 0 Z M 2.515625 0 "/></g></g><g style="fill:#595959;fill-opacity:1;"><g transform="translate(38.670584, 347.999977)"><path style="stroke:none" d="M 15.875 0 L 11.703125 0 L 11.703125 -8.921875 C 11.703125 -10.023438 11.515625 -10.851562 11.140625 -11.40625 C 10.773438 -11.957031 10.195312 -12.234375 9.40625 -12.234375 C 8.34375 -12.234375 7.566406 -11.84375 7.078125 -11.0625 C 6.597656 -10.28125 6.359375 -8.988281 6.359375 -7.1875 L 6.359375 0 L 2.1875 0 L 2.1875 -15.28125 L 5.375 -15.28125 L 5.9375 -13.328125 L 6.171875 -13.328125 C 6.578125 -14.035156 7.164062 -14.585938 7.9375 -14.984375 C 8.71875 -15.378906 9.609375 -15.578125 10.609375 -15.578125 C 12.898438 -15.578125 14.453125 -14.828125 15.265625 -13.328125 L 15.625 -13.328125 C 16.039062 -14.035156 16.644531 -14.585938 17.4375 -14.984375 C 18.238281 -15.378906 19.140625 -15.578125 20.140625 -15.578125 C 21.867188 -15.578125 23.175781 -15.128906 24.0625 -14.234375 C 24.957031 -13.347656 25.40625 -11.925781 25.40625 -9.96875 L 25.40625 0 L 21.21875 0 L 21.21875 -8.921875 C 21.21875 -10.023438 21.03125 -10.851562 20.65625 -11.40625 C 20.289062 -11.957031 19.710938 -12.234375 18.921875 -12.234375 C 17.898438 -12.234375 17.132812 -11.867188 16.625 -11.140625 C 16.125 -10.410156 15.875 -9.253906 15.875 -7.671875 Z M 15.875 0 "/></g></g><g style="fill:#595959;fill-opacity:1;"><g transform="translate(66.160893, 347.999977)"><path style="stroke:none" d="M 11.890625 0 L 11.09375 -2.078125 L 10.984375 -2.078125 C 10.273438 -1.191406 9.550781 -0.578125 8.8125 -0.234375 C 8.070312 0.109375 7.101562 0.28125 5.90625 0.28125 C 4.4375 0.28125 3.28125 -0.140625 2.4375 -0.984375 C 1.59375 -1.828125 1.171875 -3.019531 1.171875 -4.5625 C 1.171875 -6.1875 1.738281 -7.382812 2.875 -8.15625 C 4.007812 -8.925781 5.722656 -9.351562 8.015625 -9.4375 L 10.671875 -9.515625 L 10.671875 -10.1875 C 10.671875 -11.738281 9.875 -12.515625 8.28125 -12.515625 C 7.0625 -12.515625 5.628906 -12.144531 3.984375 -11.40625 L 2.59375 -14.21875 C 4.351562 -15.132812 6.304688 -15.59375 8.453125 -15.59375 C 10.503906 -15.59375 12.078125 -15.144531 13.171875 -14.25 C 14.265625 -13.363281 14.8125 -12.007812 14.8125 -10.1875 L 14.8125 0 Z M 10.671875 -7.078125 L 9.046875 -7.03125 C 7.835938 -6.988281 6.9375 -6.765625 6.34375 -6.359375 C 5.75 -5.960938 5.453125 -5.359375 5.453125 -4.546875 C 5.453125 -3.367188 6.128906 -2.78125 7.484375 -2.78125 C 8.441406 -2.78125 9.210938 -3.054688 9.796875 -3.609375 C 10.378906 -4.160156 10.671875 -4.898438 10.671875 -5.828125 Z M 10.671875 -7.078125 "/></g></g><g style="fill:#595959;fill-opacity:1;"><g transform="translate(83.070648, 347.999977)"><path style="stroke:none" d="M 15.484375 -15.28125 L 15.484375 -13.171875 L 13.09375 -12.546875 C 13.53125 -11.867188 13.75 -11.101562 13.75 -10.25 C 13.75 -8.613281 13.175781 -7.335938 12.03125 -6.421875 C 10.894531 -5.503906 9.3125 -5.046875 7.28125 -5.046875 L 6.515625 -5.09375 L 5.90625 -5.15625 C 5.476562 -4.820312 5.265625 -4.457031 5.265625 -4.0625 C 5.265625 -3.457031 6.03125 -3.15625 7.5625 -3.15625 L 10.15625 -3.15625 C 11.832031 -3.15625 13.109375 -2.796875 13.984375 -2.078125 C 14.867188 -1.359375 15.3125 -0.300781 15.3125 1.09375 C 15.3125 2.882812 14.566406 4.269531 13.078125 5.25 C 11.585938 6.238281 9.445312 6.734375 6.65625 6.734375 C 4.519531 6.734375 2.890625 6.359375 1.765625 5.609375 C 0.640625 4.867188 0.078125 3.828125 0.078125 2.484375 C 0.078125 1.566406 0.363281 0.796875 0.9375 0.171875 C 1.519531 -0.441406 2.363281 -0.882812 3.46875 -1.15625 C 3.039062 -1.332031 2.664062 -1.628906 2.34375 -2.046875 C 2.03125 -2.460938 1.875 -2.898438 1.875 -3.359375 C 1.875 -3.941406 2.039062 -4.425781 2.375 -4.8125 C 2.71875 -5.207031 3.207031 -5.59375 3.84375 -5.96875 C 3.039062 -6.3125 2.40625 -6.863281 1.9375 -7.625 C 1.46875 -8.394531 1.234375 -9.300781 1.234375 -10.34375 C 1.234375 -12.007812 1.773438 -13.296875 2.859375 -14.203125 C 3.941406 -15.117188 5.488281 -15.578125 7.5 -15.578125 C 7.9375 -15.578125 8.445312 -15.535156 9.03125 -15.453125 C 9.613281 -15.378906 9.988281 -15.320312 10.15625 -15.28125 Z M 3.6875 2.15625 C 3.6875 2.726562 3.960938 3.175781 4.515625 3.5 C 5.066406 3.832031 5.84375 4 6.84375 4 C 8.332031 4 9.5 3.796875 10.34375 3.390625 C 11.195312 2.984375 11.625 2.421875 11.625 1.703125 C 11.625 1.128906 11.375 0.734375 10.875 0.515625 C 10.375 0.296875 9.597656 0.1875 8.546875 0.1875 L 6.390625 0.1875 C 5.617188 0.1875 4.972656 0.363281 4.453125 0.71875 C 3.941406 1.082031 3.6875 1.5625 3.6875 2.15625 Z M 5.203125 -10.28125 C 5.203125 -9.445312 5.390625 -8.789062 5.765625 -8.3125 C 6.148438 -7.832031 6.726562 -7.59375 7.5 -7.59375 C 8.289062 -7.59375 8.867188 -7.832031 9.234375 -8.3125 C 9.597656 -8.789062 9.78125 -9.445312 9.78125 -10.28125 C 9.78125 -12.125 9.019531 -13.046875 7.5 -13.046875 C 5.96875 -13.046875 5.203125 -12.125 5.203125 -10.28125 Z M 5.203125 -10.28125 "/></g></g><g style="fill:#595959;fill-opacity:1;"><g transform="translate(98.886805, 347.999977)"><path style="stroke:none" d="M 8.515625 -12.609375 C 7.628906 -12.609375 6.9375 -12.328125 6.4375 -11.765625 C 5.9375 -11.203125 5.648438 -10.40625 5.578125 -9.375 L 11.4375 -9.375 C 11.414062 -10.40625 11.144531 -11.203125 10.625 -11.765625 C 10.101562 -12.328125 9.398438 -12.609375 8.515625 -12.609375 Z M 9.109375 0.28125 C 6.648438 0.28125 4.726562 -0.394531 3.34375 -1.75 C 1.957031 -3.113281 1.265625 -5.039062 1.265625 -7.53125 C 1.265625 -10.09375 1.898438 -12.070312 3.171875 -13.46875 C 4.453125 -14.875 6.222656 -15.578125 8.484375 -15.578125 C 10.648438 -15.578125 12.332031 -14.957031 13.53125 -13.71875 C 14.738281 -12.488281 15.34375 -10.789062 15.34375 -8.625 L 15.34375 -6.609375 L 5.484375 -6.609375 C 5.523438 -5.421875 5.875 -4.492188 6.53125 -3.828125 C 7.1875 -3.160156 8.109375 -2.828125 9.296875 -2.828125 C 10.210938 -2.828125 11.082031 -2.921875 11.90625 -3.109375 C 12.726562 -3.304688 13.585938 -3.613281 14.484375 -4.03125 L 14.484375 -0.8125 C 13.753906 -0.445312 12.972656 -0.175781 12.140625 0 C 11.304688 0.1875 10.296875 0.28125 9.109375 0.28125 Z M 9.109375 0.28125 "/></g></g><g style="fill:#595959;fill-opacity:1;"><g transform="translate(115.427464, 347.999977)"><path style="stroke:none" d="M 16.296875 0 L 12.125 0 L 12.125 -8.921875 C 12.125 -10.023438 11.925781 -10.851562 11.53125 -11.40625 C 11.144531 -11.957031 10.523438 -12.234375 9.671875 -12.234375 C 8.503906 -12.234375 7.660156 -11.84375 7.140625 -11.0625 C 6.617188 -10.289062 6.359375 -9 6.359375 -7.1875 L 6.359375 0 L 2.1875 0 L 2.1875 -15.28125 L 5.375 -15.28125 L 5.9375 -13.328125 L 6.171875 -13.328125 C 6.628906 -14.066406 7.265625 -14.625 8.078125 -15 C 8.898438 -15.382812 9.832031 -15.578125 10.875 -15.578125 C 12.644531 -15.578125 13.988281 -15.09375 14.90625 -14.125 C 15.832031 -13.164062 16.296875 -11.78125 16.296875 -9.96875 Z M 16.296875 0 "/></g></g><g style="fill:#595959;fill-opacity:1;"><g transform="translate(141.099662, 347.999977)"><path style="stroke:none" d="M 16.296875 0 L 12.125 0 L 12.125 -8.921875 C 12.125 -10.023438 11.925781 -10.851562 11.53125 -11.40625 C 11.144531 -11.957031 10.523438 -12.234375 9.671875 -12.234375 C 8.503906 -12.234375 7.660156 -11.84375 7.140625 -11.0625 C 6.617188 -10.289062 6.359375 -9 6.359375 -7.1875 L 6.359375 0 L 2.1875 0 L 2.1875 -15.28125 L 5.375 -15.28125 L 5.9375 -13.328125 L 6.171875 -13.328125 C 6.628906 -14.066406 7.265625 -14.625 8.078125 -15 C 8.898438 -15.382812 9.832031 -15.578125 10.875 -15.578125 C 12.644531 -15.578125 13.988281 -15.09375 14.90625 -14.125 C 15.832031 -13.164062 16.296875 -11.78125 16.296875 -9.96875 Z M 16.296875 0 "/></g></g><g style="fill:#595959;fill-opacity:1;"><g transform="translate(159.499437, 347.999977)"><path style="stroke:none" d="M 5.515625 -7.671875 C 5.515625 -6.160156 5.757812 -5.015625 6.25 -4.234375 C 6.75 -3.460938 7.5625 -3.078125 8.6875 -3.078125 C 9.789062 -3.078125 10.585938 -3.460938 11.078125 -4.234375 C 11.566406 -5.003906 11.8125 -6.148438 11.8125 -7.671875 C 11.8125 -9.179688 11.566406 -10.3125 11.078125 -11.0625 C 10.585938 -11.820312 9.78125 -12.203125 8.65625 -12.203125 C 7.539062 -12.203125 6.738281 -11.828125 6.25 -11.078125 C 5.757812 -10.328125 5.515625 -9.191406 5.515625 -7.671875 Z M 16.078125 -7.671875 C 16.078125 -5.179688 15.421875 -3.234375 14.109375 -1.828125 C 12.796875 -0.421875 10.96875 0.28125 8.625 0.28125 C 7.15625 0.28125 5.859375 -0.0390625 4.734375 -0.6875 C 3.617188 -1.332031 2.757812 -2.253906 2.15625 -3.453125 C 1.5625 -4.660156 1.265625 -6.066406 1.265625 -7.671875 C 1.265625 -10.171875 1.914062 -12.113281 3.21875 -13.5 C 4.519531 -14.882812 6.347656 -15.578125 8.703125 -15.578125 C 10.171875 -15.578125 11.46875 -15.253906 12.59375 -14.609375 C 13.71875 -13.972656 14.578125 -13.054688 15.171875 -11.859375 C 15.773438 -10.671875 16.078125 -9.273438 16.078125 -7.671875 Z M 16.078125 -7.671875 "/></g></g><g style="fill:#595959;fill-opacity:1;"><g transform="translate(184.105377, 347.999977)"><path style="stroke:none" d="M 8.515625 -12.609375 C 7.628906 -12.609375 6.9375 -12.328125 6.4375 -11.765625 C 5.9375 -11.203125 5.648438 -10.40625 5.578125 -9.375 L 11.4375 -9.375 C 11.414062 -10.40625 11.144531 -11.203125 10.625 -11.765625 C 10.101562 -12.328125 9.398438 -12.609375 8.515625 -12.609375 Z M 9.109375 0.28125 C 6.648438 0.28125 4.726562 -0.394531 3.34375 -1.75 C 1.957031 -3.113281 1.265625 -5.039062 1.265625 -7.53125 C 1.265625 -10.09375 1.898438 -12.070312 3.171875 -13.46875 C 4.453125 -14.875 6.222656 -15.578125 8.484375 -15.578125 C 10.648438 -15.578125 12.332031 -14.957031 13.53125 -13.71875 C 14.738281 -12.488281 15.34375 -10.789062 15.34375 -8.625 L 15.34375 -6.609375 L 5.484375 -6.609375 C 5.523438 -5.421875 5.875 -4.492188 6.53125 -3.828125 C 7.1875 -3.160156 8.109375 -2.828125 9.296875 -2.828125 C 10.210938 -2.828125 11.082031 -2.921875 11.90625 -3.109375 C 12.726562 -3.304688 13.585938 -3.613281 14.484375 -4.03125 L 14.484375 -0.8125 C 13.753906 -0.445312 12.972656 -0.175781 12.140625 0 C 11.304688 0.1875 10.296875 0.28125 9.109375 0.28125 Z M 9.109375 0.28125 "/></g></g><g style="fill:#595959;fill-opacity:1;"><g transform="translate(200.646037, 347.999977)"><path style="stroke:none" d="M 16.296875 0 L 12.125 0 L 12.125 -8.921875 C 12.125 -10.023438 11.925781 -10.851562 11.53125 -11.40625 C 11.144531 -11.957031 10.523438 -12.234375 9.671875 -12.234375 C 8.503906 -12.234375 7.660156 -11.84375 7.140625 -11.0625 C 6.617188 -10.289062 6.359375 -9 6.359375 -7.1875 L 6.359375 0 L 2.1875 0 L 2.1875 -15.28125 L 5.375 -15.28125 L 5.9375 -13.328125 L 6.171875 -13.328125 C 6.628906 -14.066406 7.265625 -14.625 8.078125 -15 C 8.898438 -15.382812 9.832031 -15.578125 10.875 -15.578125 C 12.644531 -15.578125 13.988281 -15.09375 14.90625 -14.125 C 15.832031 -13.164062 16.296875 -11.78125 16.296875 -9.96875 Z M 16.296875 0 "/></g></g><g style="fill:#595959;fill-opacity:1;"><g transform="translate(219.045812, 347.999977)"><path style="stroke:none" d="M 8.390625 0.28125 C 3.640625 0.28125 1.265625 -2.332031 1.265625 -7.5625 C 1.265625 -10.15625 1.910156 -12.140625 3.203125 -13.515625 C 4.492188 -14.890625 6.347656 -15.578125 8.765625 -15.578125 C 10.535156 -15.578125 12.117188 -15.226562 13.515625 -14.53125 L 12.296875 -11.3125 C 11.640625 -11.570312 11.023438 -11.785156 10.453125 -11.953125 C 9.890625 -12.117188 9.328125 -12.203125 8.765625 -12.203125 C 6.597656 -12.203125 5.515625 -10.664062 5.515625 -7.59375 C 5.515625 -4.601562 6.597656 -3.109375 8.765625 -3.109375 C 9.566406 -3.109375 10.304688 -3.210938 10.984375 -3.421875 C 11.671875 -3.640625 12.359375 -3.976562 13.046875 -4.4375 L 13.046875 -0.859375 C 12.367188 -0.429688 11.6875 -0.132812 11 0.03125 C 10.3125 0.195312 9.441406 0.28125 8.390625 0.28125 Z M 8.390625 0.28125 "/></g></g><g style="fill:#595959;fill-opacity:1;"><g transform="translate(233.440281, 347.999977)"><path style="stroke:none" d="M 5.515625 -7.671875 C 5.515625 -6.160156 5.757812 -5.015625 6.25 -4.234375 C 6.75 -3.460938 7.5625 -3.078125 8.6875 -3.078125 C 9.789062 -3.078125 10.585938 -3.460938 11.078125 -4.234375 C 11.566406 -5.003906 11.8125 -6.148438 11.8125 -7.671875 C 11.8125 -9.179688 11.566406 -10.3125 11.078125 -11.0625 C 10.585938 -11.820312 9.78125 -12.203125 8.65625 -12.203125 C 7.539062 -12.203125 6.738281 -11.828125 6.25 -11.078125 C 5.757812 -10.328125 5.515625 -9.191406 5.515625 -7.671875 Z M 16.078125 -7.671875 C 16.078125 -5.179688 15.421875 -3.234375 14.109375 -1.828125 C 12.796875 -0.421875 10.96875 0.28125 8.625 0.28125 C 7.15625 0.28125 5.859375 -0.0390625 4.734375 -0.6875 C 3.617188 -1.332031 2.757812 -2.253906 2.15625 -3.453125 C 1.5625 -4.660156 1.265625 -6.066406 1.265625 -7.671875 C 1.265625 -10.171875 1.914062 -12.113281 3.21875 -13.5 C 4.519531 -14.882812 6.347656 -15.578125 8.703125 -15.578125 C 10.171875 -15.578125 11.46875 -15.253906 12.59375 -14.609375 C 13.71875 -13.972656 14.578125 -13.054688 15.171875 -11.859375 C 15.773438 -10.671875 16.078125 -9.273438 16.078125 -7.671875 Z M 16.078125 -7.671875 "/></g></g><g style="fill:#595959;fill-opacity:1;"><g transform="translate(250.773822, 347.999977)"><path style="stroke:none" d="M 16.296875 0 L 12.125 0 L 12.125 -8.921875 C 12.125 -10.023438 11.925781 -10.851562 11.53125 -11.40625 C 11.144531 -11.957031 10.523438 -12.234375 9.671875 -12.234375 C 8.503906 -12.234375 7.660156 -11.84375 7.140625 -11.0625 C 6.617188 -10.289062 6.359375 -9 6.359375 -7.1875 L 6.359375 0 L 2.1875 0 L 2.1875 -15.28125 L 5.375 -15.28125 L 5.9375 -13.328125 L 6.171875 -13.328125 C 6.628906 -14.066406 7.265625 -14.625 8.078125 -15 C 8.898438 -15.382812 9.832031 -15.578125 10.875 -15.578125 C 12.644531 -15.578125 13.988281 -15.09375 14.90625 -14.125 C 15.832031 -13.164062 16.296875 -11.78125 16.296875 -9.96875 Z M 16.296875 0 "/></g></g><g style="fill:#595959;fill-opacity:1;"><g transform="translate(269.173585, 347.999977)"><path style="stroke:none" d="M 8.625 -3.046875 C 9.351562 -3.046875 10.226562 -3.207031 11.25 -3.53125 L 11.25 -0.421875 C 10.207031 0.046875 8.929688 0.28125 7.421875 0.28125 C 5.753906 0.28125 4.539062 -0.140625 3.78125 -0.984375 C 3.019531 -1.828125 2.640625 -3.09375 2.640625 -4.78125 L 2.640625 -12.15625 L 0.640625 -12.15625 L 0.640625 -13.921875 L 2.9375 -15.3125 L 4.140625 -18.546875 L 6.8125 -18.546875 L 6.8125 -15.28125 L 11.09375 -15.28125 L 11.09375 -12.15625 L 6.8125 -12.15625 L 6.8125 -4.78125 C 6.8125 -4.1875 6.976562 -3.75 7.3125 -3.46875 C 7.644531 -3.1875 8.082031 -3.046875 8.625 -3.046875 Z M 8.625 -3.046875 "/></g></g><g style="fill:#595959;fill-opacity:1;"><g transform="translate(281.326203, 347.999977)"><path style="stroke:none" d="M 10.71875 -15.578125 C 11.28125 -15.578125 11.75 -15.535156 12.125 -15.453125 L 11.8125 -11.546875 C 11.476562 -11.628906 11.066406 -11.671875 10.578125 -11.671875 C 9.253906 -11.671875 8.21875 -11.328125 7.46875 -10.640625 C 6.726562 -9.960938 6.359375 -9.007812 6.359375 -7.78125 L 6.359375 0 L 2.1875 0 L 2.1875 -15.28125 L 5.34375 -15.28125 L 5.96875 -12.71875 L 6.171875 -12.71875 C 6.640625 -13.570312 7.273438 -14.257812 8.078125 -14.78125 C 8.890625 -15.3125 9.769531 -15.578125 10.71875 -15.578125 Z M 10.71875 -15.578125 "/></g></g><g style="fill:#595959;fill-opacity:1;"><g transform="translate(294.039261, 347.999977)"><path style="stroke:none" d="M 11.890625 0 L 11.09375 -2.078125 L 10.984375 -2.078125 C 10.273438 -1.191406 9.550781 -0.578125 8.8125 -0.234375 C 8.070312 0.109375 7.101562 0.28125 5.90625 0.28125 C 4.4375 0.28125 3.28125 -0.140625 2.4375 -0.984375 C 1.59375 -1.828125 1.171875 -3.019531 1.171875 -4.5625 C 1.171875 -6.1875 1.738281 -7.382812 2.875 -8.15625 C 4.007812 -8.925781 5.722656 -9.351562 8.015625 -9.4375 L 10.671875 -9.515625 L 10.671875 -10.1875 C 10.671875 -11.738281 9.875 -12.515625 8.28125 -12.515625 C 7.0625 -12.515625 5.628906 -12.144531 3.984375 -11.40625 L 2.59375 -14.21875 C 4.351562 -15.132812 6.304688 -15.59375 8.453125 -15.59375 C 10.503906 -15.59375 12.078125 -15.144531 13.171875 -14.25 C 14.265625 -13.363281 14.8125 -12.007812 14.8125 -10.1875 L 14.8125 0 Z M 10.671875 -7.078125 L 9.046875 -7.03125 C 7.835938 -6.988281 6.9375 -6.765625 6.34375 -6.359375 C 5.75 -5.960938 5.453125 -5.359375 5.453125 -4.546875 C 5.453125 -3.367188 6.128906 -2.78125 7.484375 -2.78125 C 8.441406 -2.78125 9.210938 -3.054688 9.796875 -3.609375 C 10.378906 -4.160156 10.671875 -4.898438 10.671875 -5.828125 Z M 10.671875 -7.078125 "/></g></g><g style="fill:#595959;fill-opacity:1;"><g transform="translate(310.949004, 347.999977)"><path style="stroke:none" d="M 7.03125 0.28125 C 5.226562 0.28125 3.816406 -0.414062 2.796875 -1.8125 C 1.773438 -3.207031 1.265625 -5.140625 1.265625 -7.609375 C 1.265625 -10.117188 1.785156 -12.070312 2.828125 -13.46875 C 3.867188 -14.875 5.304688 -15.578125 7.140625 -15.578125 C 9.054688 -15.578125 10.523438 -14.828125 11.546875 -13.328125 L 11.671875 -13.328125 C 11.460938 -14.472656 11.359375 -15.488281 11.359375 -16.375 L 11.359375 -21.28125 L 15.546875 -21.28125 L 15.546875 0 L 12.34375 0 L 11.546875 -1.984375 L 11.359375 -1.984375 C 10.410156 -0.472656 8.96875 0.28125 7.03125 0.28125 Z M 8.484375 -3.046875 C 9.554688 -3.046875 10.335938 -3.351562 10.828125 -3.96875 C 11.328125 -4.59375 11.601562 -5.648438 11.65625 -7.140625 L 11.65625 -7.59375 C 11.65625 -9.226562 11.398438 -10.398438 10.890625 -11.109375 C 10.378906 -11.828125 9.554688 -12.1875 8.421875 -12.1875 C 7.492188 -12.1875 6.769531 -11.789062 6.25 -11 C 5.738281 -10.207031 5.484375 -9.0625 5.484375 -7.5625 C 5.484375 -6.0625 5.742188 -4.929688 6.265625 -4.171875 C 6.785156 -3.421875 7.523438 -3.046875 8.484375 -3.046875 Z M 8.484375 -3.046875 "/></g></g><g style="fill:#595959;fill-opacity:1;"><g transform="translate(328.665281, 347.999977)"><path style="stroke:none" d="M 11.890625 0 L 11.09375 -2.078125 L 10.984375 -2.078125 C 10.273438 -1.191406 9.550781 -0.578125 8.8125 -0.234375 C 8.070312 0.109375 7.101562 0.28125 5.90625 0.28125 C 4.4375 0.28125 3.28125 -0.140625 2.4375 -0.984375 C 1.59375 -1.828125 1.171875 -3.019531 1.171875 -4.5625 C 1.171875 -6.1875 1.738281 -7.382812 2.875 -8.15625 C 4.007812 -8.925781 5.722656 -9.351562 8.015625 -9.4375 L 10.671875 -9.515625 L 10.671875 -10.1875 C 10.671875 -11.738281 9.875 -12.515625 8.28125 -12.515625 C 7.0625 -12.515625 5.628906 -12.144531 3.984375 -11.40625 L 2.59375 -14.21875 C 4.351562 -15.132812 6.304688 -15.59375 8.453125 -15.59375 C 10.503906 -15.59375 12.078125 -15.144531 13.171875 -14.25 C 14.265625 -13.363281 14.8125 -12.007812 14.8125 -10.1875 L 14.8125 0 Z M 10.671875 -7.078125 L 9.046875 -7.03125 C 7.835938 -6.988281 6.9375 -6.765625 6.34375 -6.359375 C 5.75 -5.960938 5.453125 -5.359375 5.453125 -4.546875 C 5.453125 -3.367188 6.128906 -2.78125 7.484375 -2.78125 C 8.441406 -2.78125 9.210938 -3.054688 9.796875 -3.609375 C 10.378906 -4.160156 10.671875 -4.898438 10.671875 -5.828125 Z M 10.671875 -7.078125 "/></g></g></g></svg>